Coordinates
version=1
nRows=19
nColumns=36
inDegrees=yes

Units are S.I. units (second, meters, Newtons, ...)
If the header above contains a line with 'inDegrees', this indicates whether rotational values are in degrees (yes) or radians (no).

endheader
time	pelvis_tilt	pelvis_list	pelvis_rotation	pelvis_tx	pelvis_ty	pelvis_tz	hip_flexion_r	hip_adduction_r	hip_rotation_r	knee_angle_r	knee_angle_r_beta	ankle_angle_r	subtalar_angle_r	mtp_angle_r	hip_flexion_l	hip_adduction_l	hip_rotation_l	knee_angle_l	knee_angle_l_beta	ankle_angle_l	subtalar_angle_l	mtp_angle_l	lumbar_extension	lumbar_bending	lumbar_rotation	arm_flex_r	arm_add_r	arm_rot_r	elbow_flex_r	pro_sup_r	arm_flex_l	arm_add_l	arm_rot_l	elbow_flex_l	pro_sup_l
      1.96250000	    -21.78184756	     -1.17240682	     -1.93454595	     -0.93269472	      1.23241636	      0.00414755	     35.10084400	      2.75255909	      0.29334911	     20.69731877	      0.36123636	      5.71867229	    -22.20051018	     -7.49999987	     36.88926875	     -3.86313330	      6.90981731	     27.22818429	      0.47522147	     13.08817184	    -12.56510720	     -7.49999987	      5.08533573	     -0.00908119	     -1.96726412	     -5.00202996	     -4.89126645	     -2.54470800	     29.04411076	     83.42042541	     -4.04436914	     -4.71169875	     -3.21398068	     27.31648457	     92.87845016
      1.96666670	    -21.68175704	     -1.10383586	     -1.95884386	     -0.93348275	      1.23345803	      0.00362592	     35.03986225	      2.67175110	      0.32197076	     20.70925857	      0.36144475	      5.66910165	    -22.18895643	     -7.49999987	     36.65701865	     -3.80349831	      6.85350482	     26.98160309	      0.47091781	     12.97744162	    -12.58915670	     -7.49999987	      4.90147339	     -0.08242866	     -1.93655772	     -4.95013120	     -4.83102360	     -2.76849319	     29.03338743	     83.29062296	     -3.94439919	     -4.68049446	     -3.51725312	     27.26994734	     92.69525716
      1.97083330	    -21.52394086	     -1.11064246	     -1.92478758	     -0.93328639	      1.23451190	      0.00362373	     34.84614446	      2.63931936	      0.37063123	     20.60216051	      0.35957553	      5.28118197	    -22.42761772	     -7.49999987	     36.37036916	     -3.77881312	      6.87757866	     26.72206724	      0.46638806	     12.82388267	    -12.60398612	     -7.49999987	      4.66590845	     -0.06373829	     -2.01322139	     -4.88008293	     -4.81116370	     -2.84274474	     29.09798438	     82.46923330	     -3.88745552	     -4.65807439	     -3.56876956	     27.26656278	     91.88424901
      1.97500000	    -21.38974714	     -1.11377517	     -1.87066001	     -0.93323088	      1.23591707	      0.00331901	     34.59531966	      2.53816737	      0.10547214	     20.36808647	      0.35549017	      5.37191984	    -21.84306373	     -7.49999987	     36.05165467	     -3.76593177	      6.82433706	     26.37046378	      0.46025142	     12.65947774	    -12.43224993	     -7.49999987	      4.49282554	     -0.05697531	     -2.06945763	     -4.89005510	     -4.80390874	     -2.87121577	     29.23390207	     81.62922835	     -3.88612820	     -4.65390564	     -3.56883874	     27.37058796	     90.84255436
      1.97916670	    -20.56448057	     -1.07067223	     -1.84921869	     -0.93311966	      1.23758694	      0.00351808	     33.62296314	      2.49415026	      0.31090808	     20.19257499	      0.35242692	      5.03336425	    -22.25793335	     -7.49999987	     34.97332281	     -3.71002841	      6.80720405	     26.01711500	      0.45408432	     12.40969725	    -12.77637170	     -7.49999987	      3.22780371	     -0.16903729	     -1.98712948	     -4.51082448	     -4.76120249	     -3.42198559	     29.14787166	     86.46459860	     -3.43867242	     -4.67837179	     -4.26595985	     27.32448896	     96.83629543
      1.98333330	    -20.19869625	     -1.09460138	     -1.80629496	     -0.93243313	      1.23714357	      0.00406409	     33.06042950	      2.50149495	      0.32429283	     19.91249191	      0.34753855	      4.85392378	    -22.36922653	     -7.49999987	     34.44624150	     -3.73969630	      6.78077998	     25.78596353	      0.45004996	     12.17650674	    -12.93580625	     -7.49999987	      2.69952233	     -0.19807363	     -2.04774280	     -4.38640355	     -4.70698780	     -3.49095214	     29.17325952	     85.50223938	     -3.33601016	     -4.65868106	     -4.34769694	     27.34343242	     95.01464061
      1.98750000	    -20.22739821	     -1.17448544	     -1.77906080	     -0.93234688	      1.23721274	      0.00358329	     32.97554059	      2.57837870	      0.33199989	     19.71043785	      0.34401204	      4.38246975	    -22.87951997	     -7.49999987	     34.46708560	     -3.81767149	      6.78748465	     25.76623849	      0.44970570	     11.99938945	    -13.09876340	     -7.49999987	      2.76639765	     -0.10635032	     -2.10251908	     -4.46313039	     -4.72337958	     -3.52245606	     29.37856123	     83.88387574	     -3.41053510	     -4.62304915	     -4.31451988	     27.44276624	     93.52308829
      1.99166670	    -19.67858068	     -1.13632993	     -1.77943988	     -0.93227602	      1.23848740	      0.00374107	     32.29183935	      2.53497186	      0.28823830	     19.57426046	      0.34163529	      4.63094576	    -22.52301084	     -7.49999987	     33.71402546	     -3.80259006	      6.69331197	     25.48052119	      0.44471899	     11.89889494	    -13.13123825	     -7.49999987	      2.01856705	     -0.20706093	     -2.11460559	     -4.15640557	     -4.69534241	     -3.32222478	     29.10950148	     83.56304553	     -3.11711332	     -4.69346074	     -4.15123411	     27.18886673	     93.10258454
      1.99583330	    -19.22618652	     -1.12442930	     -1.75083347	     -0.93217806	      1.23820497	      0.00365363	     31.74691573	      2.51655959	      0.31459313	     19.47158671	      0.33984330	      4.76053045	    -22.34919378	     -7.49999987	     33.11315409	     -3.79743852	      6.62110417	     25.26625775	      0.44097939	     11.83930005	    -13.12723057	     -7.49999987	      1.31660571	     -0.25824279	     -2.08357915	     -4.02903370	     -4.78493968	     -2.86228437	     29.24995385	     82.84268187	     -2.93452101	     -4.83423256	     -3.52971014	     27.33250374	     91.20839909
      2.00000000	    -19.18418682	     -1.20700760	     -1.67343057	     -0.93195639	      1.23691946	      0.00446755	     31.81437165	      2.55502163	      0.07001667	     19.66454359	      0.34321103	      5.21429190	    -21.85834765	     -7.49999987	     33.16936600	     -3.88662900	      6.59811877	     25.40996393	      0.44348753	     12.08284790	    -12.98472379	     -7.49999987	      1.32901072	     -0.19159566	     -2.26848564	     -3.93255230	     -4.73916981	     -2.93373070	     29.14297094	     82.24538409	     -2.93837716	     -4.83386122	     -3.50856541	     27.17247142	     90.50017721
      2.00416670	    -19.11223292	     -1.17971920	     -1.59698716	     -0.93271346	      1.23866092	      0.00465060	     31.85864285	      2.52811144	      0.06701614	     19.83175387	      0.34612940	      5.63912070	    -21.36122747	     -7.49999987	     33.11908548	     -3.84818763	      6.58494355	     25.40311764	      0.44336804	     12.11567095	    -12.92919497	     -7.49999987	      1.15427898	     -0.25011584	     -2.34370825	     -3.84304613	     -4.70728227	     -2.88729460	     28.95567535	     81.99291884	     -2.81360382	     -4.90058924	     -3.41590307	     26.97493152	     90.10308804
      2.00833330	    -19.13663600	     -1.21206058	     -1.51630999	     -0.93225746	      1.23699241	      0.00468986	     31.98134378	      2.55216362	      0.00227293	     19.96896574	      0.34852420	      6.11056326	    -20.91076879	     -7.49999987	     33.20063969	     -3.88929560	      6.53754851	     25.45712031	      0.44431057	     12.32696546	    -12.79532590	     -7.49999987	      1.20673045	     -0.26153365	     -2.38932789	     -3.84183216	     -4.68100279	     -2.82025909	     29.08896441	     81.39341562	     -2.80950971	     -4.96460654	     -3.28667586	     27.09971640	     89.31274180
      2.01250000	    -19.24647375	     -1.19646419	     -1.48465858	     -0.93259869	      1.23558557	      0.00425592	     32.27076769	      2.53748645	      0.09334786	     20.26816716	      0.35374625	      6.31630402	    -20.95519644	     -7.49999987	     33.42728342	     -3.87984479	      6.47868661	     25.62225178	      0.44719266	     12.46421938	    -12.73736011	     -7.49999987	      1.27843023	     -0.30325062	     -2.34004740	     -3.97777575	     -4.57323046	     -3.94820085	     29.32186059	     87.25115702	     -2.81481666	     -4.92372013	     -4.68216894	     27.32670626	     97.08956584
      2.01666670	    -19.44311896	     -1.23679855	     -1.42322430	     -0.93276054	      1.23644273	      0.00350140	     32.52770151	      2.53368599	      0.12862569	     20.34122086	      0.35502128	      6.40128443	    -20.85581449	     -7.49999987	     33.68243556	     -3.87341947	      6.48205904	     25.69173371	      0.44840534	     12.48360602	    -12.75029410	     -7.49999987	      1.58114796	     -0.23443680	     -2.42466703	     -4.10463643	     -4.58561795	     -3.92227887	     29.49764026	     85.37350045	     -2.94976770	     -4.88883550	     -4.64748733	     27.46686051	     95.24732810
      2.02083330	    -19.49094299	     -1.25287891	     -1.41375811	     -0.93329728	      1.23520455	      0.00327009	     32.72185427	      2.54253965	      0.29608850	     20.62820939	      0.36003017	      6.35851812	    -21.12265358	     -7.49999987	     33.84679681	     -3.86506085	      6.48962028	     25.87754986	      0.45164845	     12.61941019	    -12.81262868	     -7.49999987	      1.55953328	     -0.18335484	     -2.37216374	     -4.21789647	     -4.66198991	     -3.85985874	     29.78935982	     84.94343471	     -2.95861023	     -4.88529122	     -4.63679875	     27.74185815	     95.06604826
      2.02500000	    -19.57584242	     -1.21249065	     -1.42288272	     -0.93319252	      1.23287376	      0.00357279	     33.00530197	      2.44212385	      0.09574523	     21.05610430	      0.36749835	      6.97095229	    -20.37645124	     -7.49999987	     34.00420019	     -3.80447325	      6.46973282	     25.97998168	      0.45343622	     12.68529762	    -12.89755129	     -7.49999987	      1.74314426	     -0.20857002	     -2.42842005	     -4.00665954	     -4.66019827	     -3.62418751	     29.27466891	     83.97080027	     -2.84882351	     -4.87859082	     -4.40612014	     27.26863087	     93.65793357
      2.02916670	    -19.77601222	     -1.17030868	     -1.43525386	     -0.93302749	      1.23386089	      0.00364615	     33.31199875	      2.40446339	      0.18885726	     21.26550586	      0.37115309	      7.18125140	    -20.34215651	     -7.49999987	     34.27075508	     -3.75013529	      6.50050328	     26.03224523	      0.45434839	     12.60253397	    -13.04503709	     -7.49999987	      2.04876109	     -0.25600101	     -2.38497003	     -4.09244641	     -4.84820575	     -2.74860560	     29.24320278	     84.47858313	     -2.87474614	     -5.07159587	     -3.53808215	     27.23120208	     94.16024146
      2.03333330	    -19.83858769	     -1.23814954	     -1.44445359	     -0.93302872	      1.23629953	      0.00332591	     33.26051139	      2.43876290	      0.08561963	     21.08838824	      0.36806181	      7.26680893	    -19.99296314	     -7.49999987	     34.28141608	     -3.82102782	      6.50884537	     25.91230537	      0.45225505	     12.52020534	    -12.97849073	     -7.49999987	      2.22170355	     -0.12819534	     -2.42267575	     -4.09642901	     -4.85130092	     -2.89086099	     29.18002380	     83.45131889	     -2.94925192	     -4.99488107	     -3.62488366	     27.14728185	     92.99496935
      2.03750000	    -19.68088208	     -1.17158455	     -1.51070280	     -0.93338756	      1.23749106	      0.00314847	     33.07335151	      2.38540892	      0.18451780	     21.00947118	      0.36668445	      7.19720401	    -20.10291212	     -7.49999987	     34.02644182	     -3.75112880	      6.51966943	     25.72331281	      0.44895650	     12.20190576	    -13.39021386	     -7.49999987	      1.97181467	     -0.19519821	     -2.39180420	     -3.90979026	     -4.90444529	     -2.76334435	     28.98681385	     81.66390058	     -2.78716636	     -5.04885208	     -3.47749944	     26.96940227	     90.65569335
